<svg xmlns="http://www.w3.org/2000/svg" width="524.087" height="534.87" viewBox="0 0 524.087 534.87">
  <g id="africa" transform="translate(0 1279.809)">
    <path id="Path_2" data-name="Path 2" d="M273.214-1277.632a13.666,13.666,0,0,1-3.552,2.424,14.968,14.968,0,0,1-4.263-1.045c-2.758-.919-3.636-1.045-4.555-.71a2.113,2.113,0,0,1-1.881,0c-1.254-.669-1.922-.5-2.424.627a1.624,1.624,0,0,1-1.713,1.045,2.243,2.243,0,0,0-1.881.919l-.627.92-2.006-1.087c-1.8-.961-2.633-1.087-7.941-1.3l-5.935-.209-1.379,1.337c-1.379,1.337-1.5,1.379-5.976,1.588-5.475.251-7.565,1-7.982,2.717-.5,2.048-.961,2.3-3.385,2.006a10.508,10.508,0,0,0-8.986,3.134c-1.839,1.755-2.466,2.09-3.8,2.09a9.377,9.377,0,0,1-3.134-.669c-1.839-.752-6.812-.46-9.445.585-1.463.585-1.714.585-2.967-.083a16.721,16.721,0,0,1-3.343-3.009c-1.045-1.254-2.257-2.257-2.675-2.257-1.045,0-2.048,1.63-2.382,3.845-.418,2.8-5.1,10.406-7.564,12.287a34.411,34.411,0,0,1-9.7,3.928,17.28,17.28,0,0,0-5.976,2.424c-.919.752-.961,2.215-.167,3.761.5,1,.5,1.588.042,3.761a9.692,9.692,0,0,1-1.212,3.385c-.919,1-.836,3.719.167,5.266a6.042,6.042,0,0,1-.209,6.52c-.543.794-1.546,2.173-2.173,3.134-1.839,2.675-6.854,7.147-9.362,8.317a12.394,12.394,0,0,1-3.845,1.045c-2.758,0-4.388.961-5.35,3.218-2.508,5.851-3.511,7.314-6.938,9.738-2.591,1.839-3.552,4.012-3.845,8.777l-.251,3.928-1.379.418a4.664,4.664,0,0,0-2.257,1.672c-.5.711-1.421,1.839-2.048,2.549a18.785,18.785,0,0,0-2.424,4.681c-1.881,5.182-2.842,6.854-5.057,8.9-1.672,1.546-2.048,2.215-2.3,3.845a9.535,9.535,0,0,0,2.967,8.108,5.221,5.221,0,0,1,1.839,2.758,22.3,22.3,0,0,0,.251,2.466c.209,1.3.084,1.713-1.045,2.842-1,1-1.254,1.588-1.087,2.257a9.326,9.326,0,0,0,3.594,3.719c.5.167.5.334,0,1.3-.418.752-.5,1.8-.293,3.8.293,2.466.209,2.884-.836,4.681-1.254,2.131-1.8,4.43-2.215,9.571l-.251,3.344-2.006,1.3c-3.093,2.006-4.054,3.093-4.054,4.43,0,1.588.627,2.758,2.34,4.347,1.337,1.254,1.421,1.463,1.421,4.263a29.033,29.033,0,0,1-.46,5.057c-.794,3.8,1.045,6.729,4.555,7.272,2.633.46,3.72,1.546,4.054,4.263.251,2.132.376,2.382,1.672,2.884,1.128.5,1.672,1.212,2.884,3.678a27.7,27.7,0,0,1,1.588,3.887c.084.585.5.878,1.337.961.752.084,1.964.961,3.469,2.424,2.257,2.257,2.257,2.3,1.8,3.761-.836,2.466-.251,4.012,2.549,6.729a24.8,24.8,0,0,1,3.427,4.012,3.518,3.518,0,0,0,2.131,1.881,2.246,2.246,0,0,1,1.755,1.672c.669,2.048,4.138,5.308,7.941,7.439,4.012,2.257,6.185,4.347,6.938,6.645.5,1.5.71,1.672,2.09,1.8a2.2,2.2,0,0,1,2.048,1.045,2.3,2.3,0,0,0,2.466,1.546,5.789,5.789,0,0,1,2.424.836,5.5,5.5,0,0,0,2.006.836c.669,0,4.973-2.09,7.23-3.552a10.33,10.33,0,0,1,4.012-1.212,8.152,8.152,0,0,0,3.761-1.17c1.546-1.17,4.138-1.379,9.863-.836,4.806.46,7.732,1.463,9.654,3.3l1.128,1.045,1.3-.92a8.835,8.835,0,0,1,3.218-1.3,11.85,11.85,0,0,0,3.594-1.588,12.477,12.477,0,0,1,3.385-1.63,7.72,7.72,0,0,0,2.549-1.337c.71-.669,1.923-1.045,4.639-1.379,3.385-.46,3.72-.585,3.929-1.546.209-.878.627-1.087,2.925-1.5,2.8-.543,15.923-.71,18.18-.209.878.167,1.3.543,1.379,1.212.084.585.71,1.212,1.714,1.755,1.63.794,3.761,2.967,3.845,3.887.042.292.084,1.5.125,2.758.042,1.714.251,2.382.878,2.842,2.382,1.672,4.1,2.633,4.681,2.633a14.163,14.163,0,0,0,3.343-1.463c2.549-1.379,2.842-1.463,6.77-1.463h4.138l2.549,2.758c3.72,4.1,4.806,6.52,4.973,11.451a21.648,21.648,0,0,1-.878,7.982,57.641,57.641,0,0,0-1.337,6.436,33.961,33.961,0,0,1-1.337,5.642,29.449,29.449,0,0,0-1.254,5.851c-.251,3.218.627,5.726,3.427,9.821.961,1.379,2.257,3.385,2.884,4.472a30.4,30.4,0,0,0,3.218,4.388,11.665,11.665,0,0,1,2.257,3.344c.125.543.293,1.379.418,1.922a2.592,2.592,0,0,0,1.546,1.588,2.089,2.089,0,0,1,1.5,1.63,4.176,4.176,0,0,0,.919,1.881c1.672,1.881,3.343,5.015,3.343,6.352,0,1.087.251,1.5,1.045,1.881.585.251,1.045.585,1.045.752s-.46.627-1.045,1c-1.421.919-1.337,1.713.627,4.6a9.746,9.746,0,0,1,1.672,3.427,21.723,21.723,0,0,0,1.881,4.806c2.131,4.347,2.257,5.308,1,7.314-1.379,2.3-1.212,4.472.752,8.735.919,2.048,2.131,4.973,2.633,6.478,1.546,4.346.711,6.561-3.385,8.985-1.755,1.045-3.385,4.179-3.636,7.021a6.614,6.614,0,0,1-.836,2.926c-.418.46-.836,2.34-1.17,5.1-.418,3.678-.669,4.639-1.755,6.269a10.884,10.884,0,0,0-1.5,3.72c-1.337,11.535-1.588,17.553-.961,20.061a10.5,10.5,0,0,0,2.34,3.135,9.868,9.868,0,0,1,2.758,4.221,10.354,10.354,0,0,0,1.672,3.343,17.278,17.278,0,0,1,2.926,7.1c.5,3.594,1.546,5.851,4.388,9.863,3.176,4.43,3.594,5.6,2.967,7.982-.71,2.549-.543,5.141.627,8.944a14.583,14.583,0,0,1,.836,6.645,10.99,10.99,0,0,0,.585,5.517A15.327,15.327,0,0,1,311.2-808c0,2.382,1.379,8.944,2.173,10.406,2.34,4.263,3.594,6.06,4.723,6.687,1.755.961,4.1,6.729,4.012,9.947-.042,2.633,1.087,5.642,2.466,6.353a7.306,7.306,0,0,1,1.964,2.633,23.407,23.407,0,0,0,2.048,3.594,5.451,5.451,0,0,1,1,3.761c0,2.884-.251,3.3-2.09,3.469-1,.084-1.5.376-1.588.878a6.446,6.446,0,0,0,1.839,5.266c1.588,1.755,1.755,2.591.752,3.427-.627.5-.585.627.251,1.3a5.963,5.963,0,0,0,2.508,1c1.17.209,2.132.794,3.594,2.3a8.459,8.459,0,0,0,2.675,2.048,7.978,7.978,0,0,0,2.549-1.212c1.755-1.17,5.308-2.131,8.777-2.34a6.6,6.6,0,0,0,2.842-1.087,3.8,3.8,0,0,1,2.758-.836,32.037,32.037,0,0,0,7.063-.167,14.77,14.77,0,0,1,4.806.209c2.8.5,2.842.5,5.935-.878a10.888,10.888,0,0,1,5.182-1.337,3.926,3.926,0,0,0,3.427-1.17,3.764,3.764,0,0,1,3.009-1.128c1.337.042,2.006-.251,3.636-1.588,3.887-3.218,9.821-9.153,10.824-10.866a3.818,3.818,0,0,1,2.884-2.215,4.659,4.659,0,0,0,2.884-1.839,143.376,143.376,0,0,0,9.278-14c1.922-3.385,2.633-4.3,3.511-4.514,2.006-.418,2.131-.543,2.131-1.881a10.6,10.6,0,0,1,1.421-3.887c1.546-2.842,2.675-7.314,3.176-12.663.293-3.427.376-3.594,2.09-5.349a18.513,18.513,0,0,1,8.86-4.764,8.028,8.028,0,0,0,4.388-2.3l2.006-1.8.042-3.929a20.494,20.494,0,0,1,.71-5.767c.919-2.382.878-3.469-.125-5.517a4.635,4.635,0,0,1-.627-3.009,5.312,5.312,0,0,0-.585-3.218,10.316,10.316,0,0,1-.878-3.26,2.83,2.83,0,0,0-1.045-2.257c-2.3-2.006-.752-5.558,2.717-6.185,3.427-.627,4.1-1.087,4.639-2.925.418-1.338,1.3-2.466,3.845-4.723a54.2,54.2,0,0,0,5.35-5.6,14.268,14.268,0,0,1,8.484-5.517c1.839-.418,2.884-1.045,5.6-3.427,3.469-3.009,3.8-3.511,4.054-6.06.084-1.17.711-2.09,2.842-4.263,3.636-3.8,4.221-5.015,3.845-7.982a61.007,61.007,0,0,1-.209-6.729c.251-14.21.293-14.837,1-16.257.961-1.839.585-3.176-1.337-4.388-4.1-2.633-5.935-5.433-5.935-9.111a10.221,10.221,0,0,0-.794-3.344,22.728,22.728,0,0,1-1.254-4.932c-.5-3.3-.251-5.015.961-6.771,1.337-1.881.627-4.472-1.8-6.771-1.5-1.463-1.63-2.591-.46-4.848,1-2.006,2.048-2.591,4.555-2.675,1.922-.042,1.922-.042,2.048-1.588.167-2.048-.46-3.134-2.006-3.469-1.463-.334-1.546-.752-.46-2.173a6.684,6.684,0,0,0,1.087-2.967c.543-4.43.669-4.723,2.549-6.6a7.724,7.724,0,0,0,1.839-2.466,14.464,14.464,0,0,1,2.716-3.385c1.5-1.546,2.717-3.135,2.717-3.511,0-.794,3.72-5.141,6.854-7.941a29.431,29.431,0,0,0,3.72-4.388c3.3-4.932,12.621-13.833,17.219-16.467,3.3-1.88,4.848-3.385,5.851-5.684.711-1.588,2.006-3.093,5.1-5.935,4.263-3.928,4.932-4.973,6.144-9.32a13.643,13.643,0,0,1,2.675-4.806c2.633-3.26,3.093-4.138,3.469-6.729a14,14,0,0,1,.961-3.552c.334-.794.919-2.257,1.3-3.218a66.066,66.066,0,0,1,6.394-11.493,11.816,11.816,0,0,0,2.591-8.024,10.485,10.485,0,0,1,.627-3.97,6.524,6.524,0,0,0,.585-2.716,6.525,6.525,0,0,0-.585-2.717,6.269,6.269,0,0,1-.627-2.34c0-1.3-1.086-2.675-2.048-2.675a6.1,6.1,0,0,0-2.048,1.045c-2.675,1.839-7.982,3.678-9.78,3.385a6.879,6.879,0,0,0-3.678.585,13.508,13.508,0,0,1-4.138.836,3.911,3.911,0,0,0-3.552,1.5l-1.588,1.547-3.385-.251c-3.009-.25-3.8-.167-7.272.961-4.514,1.463-7.606,1.63-8.609.5a10.077,10.077,0,0,1-1.379-2.925c-.919-2.758-1.8-3.594-3.929-3.511-1.212.042-1.755-.125-2.048-.669-.585-1.086.209-2.173,1.588-2.173,1.546,0,2.3-.919,1.922-2.382-.125-.669-.376-1.881-.5-2.758a2.189,2.189,0,0,0-1.588-2.215,3.11,3.11,0,0,1-1.714-1.5,15.087,15.087,0,0,0-1.463-2.717,8.746,8.746,0,0,1-1.212-2.132c0-.711-1.463-1.672-3.343-2.173-1.045-.251-2.173-.543-2.591-.669a3.451,3.451,0,0,1-1.3-1.755c-.627-1.546-3.678-4.472-6.353-6.143-.669-.46-1.964-1.421-2.842-2.173a5.7,5.7,0,0,0-2.131-1.379c-1,0-2.424-2.173-2.173-3.343.334-1.63-1.881-10.7-3.594-14.628-1.379-3.218-1.463-3.344-2.884-3.344-1.045,0-1.254-.209-1.463-1.254-.209-.961-.5-1.254-1.212-1.254-2.926,0-4.806-4.138-4.806-10.574a23,23,0,0,0-2.591-11.66c-2.173-4.6-3.8-6.854-5.266-7.147-2.8-.585-4.848-4.138-3.845-6.771a7.2,7.2,0,0,0,.418-2.3c0-.961-.209-1.3-1.045-1.5a2.554,2.554,0,0,1-1.881-2.591c0-1-3.134-7.063-4.388-8.442a11.008,11.008,0,0,1-1.588-2.34,17.4,17.4,0,0,0-2.34-2.967c-1.672-1.63-1.713-1.8-1.713-4.514,0-2.591-.084-2.884-1.3-3.887-5.141-4.514-10.574-14.711-8.777-16.634.209-.209-.543-2.382-1.881-5.308-1.254-2.717-2.257-5.1-2.257-5.266,0-.209.5-.292,1.17-.209,1.672.251.794-.084-4.179-1.5-4.639-1.337-5.349-1.3-6.561.167a3.622,3.622,0,0,1-1.8.878,3.439,3.439,0,0,0-2.09,1.714,5.557,5.557,0,0,1-1.588,1.839c-1.128.585-3.3.5-5.726-.209-1.17-.334-3.134-.836-4.347-1.045a10.685,10.685,0,0,1-3.427-1.3,16.446,16.446,0,0,0-5.015-1.63c-2.131-.418-4.179-.919-4.555-1.045-.46-.167-.878,0-1.254.585-.836,1.337-1.463,1.086-2.884-1.212a6.521,6.521,0,0,0-1.964-2.257c-.376-.083-2.884-.292-5.517-.46-6.185-.334-6.269-.376-6.269-2.048,0-1.63-1.045-2.759-2.967-3.135a2.805,2.805,0,0,1-2.048-1.5c-1.045-1.923-2.842-1.923-4.973,0a11.1,11.1,0,0,1-4.43,2.3c-3.3.961-3.761,1.3-4.388,3.134-.376,1.128-.293,1.8.418,3.8a15.541,15.541,0,0,1,.836,3.427,6.11,6.11,0,0,1-3.134,4.89c-2.424,1.421-3.887,1.337-6.311-.418-4.221-3.051-4.43-3.134-7.147-3.134-2.466,0-4.388-.543-9.612-2.716a8.436,8.436,0,0,1-3.887-5.015c-1.087-3.427-1.8-3.929-6.6-4.263-3.009-.25-3.3-.334-4.6-1.713-1.212-1.254-1.881-1.546-4.388-2.006a45.969,45.969,0,0,0-4.89-.585c-3.176-.042-4.973-.71-5.935-2.34-.878-1.463-1.379-1.672-2.382-1.045-.418.292-1,.084-1.839-.627a5.132,5.132,0,0,0-1.546-1c-.167,0-.543-.543-.836-1.212a2.961,2.961,0,0,1,2.09-4.054,2.916,2.916,0,0,0,1.881-1.588,6.787,6.787,0,0,1,1.379-1.922c1.546-1.421,1.254-3.469-.752-5.433-1.463-1.421-1.672-1.881-1.672-3.469a5.161,5.161,0,0,1,1.5-3.761c1.421-1.839,1.588-2.8.418-2.8a3.221,3.221,0,0,0-1.5,1.045l-1,1.045-2.09-2.048C277.518-1280.6,276.766-1280.682,273.214-1277.632ZM415.686-1012a.419.419,0,0,1-.418.418.45.45,0,0,1-.418-.418.419.419,0,0,1,.418-.418A.4.4,0,0,1,415.686-1012Z" transform="translate(-61.699 0)"/>
    <path id="Path_3" data-name="Path 3" d="M165.531-1135.508c-.71.711-.627,2.006.209,2.3.46.167,1-.125,1.672-.961a5.631,5.631,0,0,0,.961-1.547C168.373-1136.219,166.074-1136.052,165.531-1135.508Z" transform="translate(-96.071 -83.697)"/>
    <path id="Path_4" data-name="Path 4" d="M102.684-1126.507a2.057,2.057,0,0,0-.919.961c-.334.627-.251.71.961.46.752-.167,1.337-.543,1.337-.877C104.063-1126.59,103.478-1126.841,102.684-1126.507Z" transform="translate(-59.135 -89.146)"/>
    <path id="Path_5" data-name="Path 5" d="M158.54-1125.483c-1.212,2.048-1.463,3.135-.919,3.8.794.961,2.006.752,3.135-.46,1.254-1.337,1.337-3.093.293-4.054C159.919-1127.2,159.459-1127.071,158.54-1125.483Z" transform="translate(-91.588 -89.041)"/>
    <path id="Path_6" data-name="Path 6" d="M120.1-1123.538a3.513,3.513,0,0,0-1.421,1c-.5.627-.418.877.585,1.922a4.31,4.31,0,0,0,1.672,1.254c.752,0,2.633-2.215,2.926-3.469.293-1.086.251-1.128-1.3-1.086A7.449,7.449,0,0,0,120.1-1123.538Z" transform="translate(-68.907 -90.736)"/>
    <path id="Path_7" data-name="Path 7" d="M135.581-1116.275c-.669.794-.167,2.549.961,3.26,1.672,1.045,3.134-1.588,1.714-3.135A1.646,1.646,0,0,0,135.581-1116.275Z" transform="translate(-78.743 -94.822)"/>
    <path id="Path_8" data-name="Path 8" d="M0-907.424a1.79,1.79,0,0,0,1.922,1.546c1.379,0,1.588-.669.5-1.421C1.3-908.093,0-908.176,0-907.424Z" transform="translate(0 -216.451)"/>
    <path id="Path_9" data-name="Path 9" d="M5.735-887.5c-.836.46-1.045,3.051-.334,3.51.543.334,2.758-.878,3.093-1.713C9.2-887.5,7.532-888.591,5.735-887.5Z" transform="translate(-2.893 -228.096)"/>
    <path id="Path_10" data-name="Path 10" d="M499.978-685.5c-1.839,1-2.34,2.34-1.212,3.427,1.63,1.63,3.929.125,3.929-2.55,0-1.17-.167-1.379-.919-1.379A4.443,4.443,0,0,0,499.978-685.5Z" transform="translate(-289.968 -345.638)"/>
    <path id="Path_11" data-name="Path 11" d="M390.51-558.745c-.543.543.627,1.421,1.881,1.421.961,0,1.212-.167,1.087-.752C393.352-558.787,391.095-559.33,390.51-558.745Z" transform="translate(-227.224 -419.565)"/>
    <path id="Path_12" data-name="Path 12" d="M979.31-509.518c-.5.5-.334,1.3.543,2.3l.794,1,.042-1.087C980.689-508.473,979.77-509.978,979.31-509.518Z" transform="translate(-569.864 -448.314)"/>
    <path id="Path_13" data-name="Path 13" d="M1037-410.164a.75.75,0,0,0,.836.836.75.75,0,0,0,.836-.836.75.75,0,0,0-.836-.836A.75.75,0,0,0,1037-410.164Z" transform="translate(-603.607 -505.707)"/>
    <path id="Path_14" data-name="Path 14" d="M1067.6-399.328a8.642,8.642,0,0,0-1.5,2.006c0,.209.46.752,1.045,1.254a2.912,2.912,0,0,1,1.045,1.421c0,.794-4.1,4.514-4.973,4.514a2.338,2.338,0,0,0-2.132,2.466,3.234,3.234,0,0,1-1.045,2.132,3.079,3.079,0,0,0-1.045,2.215c0,1.17-.084,1.212-1.3.961-1.547-.293-2.884.334-2.884,1.379a1.7,1.7,0,0,1-1.964,1.63c-.543-.084-.794.167-.878.919-.208,1.546-1.128,2.34-4.054,3.511a31.448,31.448,0,0,0-4.054,1.922,5.816,5.816,0,0,1-2.257.836,3.937,3.937,0,0,0-2.006.878,8.333,8.333,0,0,1-2.257,1.17c-.961.251-1.129.543-1.254,1.964a4.461,4.461,0,0,1-1.129,2.675c-1.337,1.463-2.131,3.135-2.926,6.269-.794,3.093-.585,4.263,1.087,6.144a7.736,7.736,0,0,1,1.463,2.549c.125.627.418,1.672.627,2.34a8.665,8.665,0,0,1-.669,6.729,15.122,15.122,0,0,0-2.3,5.1,10.232,10.232,0,0,1-2.675,4.179,24.651,24.651,0,0,0-2.925,3.761c-1.128,2.215-.878,4.932.794,8.066a17.3,17.3,0,0,1,1.839,6.1c.878,6.9,1.17,7.69,3.761,10.114a13.207,13.207,0,0,0,3.636,2.549c2.842.794,7.565-.878,12.454-4.346,3.009-2.131,3.26-2.591,4.221-8.108a17.607,17.607,0,0,1,1.839-5.6,19.48,19.48,0,0,0,1.922-5.893,15.4,15.4,0,0,1,1.8-5.35,7.176,7.176,0,0,0,1.17-3.97c.084-1.922.293-2.508,1.338-3.636,1.17-1.17,1.964-2.967,3.678-8.191a9.651,9.651,0,0,1,1.672-2.967c1.3-1.379,1.8-3.385,1.839-7.314a15.516,15.516,0,0,1,2.717-9.32,6.11,6.11,0,0,0,1.463-4.346c0-2.675.251-3.009,1.588-2.131,1.463.961,2.34.46,2.006-1.17a12.788,12.788,0,0,1,.209-3.636c.46-2.131.418-2.508-.418-4.137-.794-1.546-.878-2.382-.836-6.478.084-4.388.042-4.848-.961-6.562a16.074,16.074,0,0,1-1.379-3.218c-.292-1.463-1.922-3.051-3.134-3.051A5.168,5.168,0,0,0,1067.6-399.328Z" transform="translate(-597.175 -511.528)"/>
    <path id="Path_15" data-name="Path 15" d="M1244.173-259.315c-.919.376-2.173,2.633-2.173,3.97,0,1.212,1.589.627,3.3-1.254,1.672-1.8,2.131-2.717,1.337-2.717a5.17,5.17,0,0,1-.961-.167A2.517,2.517,0,0,0,1244.173-259.315Z" transform="translate(-722.93 -593.867)"/>
    <path id="Path_16" data-name="Path 16" d="M1208.967-242.279c-1.087,1.045-.418,1.964,1.337,1.8,1.3-.125,1.5-.251,1.5-1.17,0-.836-.251-1.087-1.087-1.17A2.232,2.232,0,0,0,1208.967-242.279Z" transform="translate(-703.397 -603.589)"/>
  </g>
</svg>
