<svg xmlns="http://www.w3.org/2000/svg" width="512" height="447.828" viewBox="0 0 512 447.828">
  <g id="friend" transform="translate(0 -32.086)">
    <g id="Group_86" data-name="Group 86">
      <path id="Path_84" data-name="Path 84" d="M503.624,161.319c5.437-6.157,7.827-14.733,6.578-23.8a43.154,43.154,0,0,0-12.52-24.251c-11.395-11.395-26.98-15.337-39.16-11.1v-17.3a52.783,52.783,0,0,0-105.565,0V106.26c0,.078.005.154.006.231H308.776c0-.078.006-.154.006-.231V84.868a52.782,52.782,0,0,0-105.564,0V106.26c0,.078.005.154.006.231H159.037c0-.078.006-.154.006-.231V84.868a52.782,52.782,0,1,0-105.564,0v17.3c-12.18-4.238-27.765-.3-39.161,11.1A43.16,43.16,0,0,0,1.8,137.519c-1.25,9.065,1.142,17.642,6.578,23.8A106.175,106.175,0,0,0,0,202.523v74.869a31.427,31.427,0,0,0,31.392,31.392H42.783v151.13H31.391a10,10,0,0,0,0,20H480.609a10,10,0,0,0,0-20H469.217V308.784h11.392A31.427,31.427,0,0,0,512,277.392V202.523a106.174,106.174,0,0,0-8.376-41.2ZM462.6,122.575a8.484,8.484,0,0,1,6.1-2.154,14.589,14.589,0,0,1,2,.141,25,25,0,0,1,19.689,19.689c.275,2,.38,5.711-2.015,8.106s-6.107,2.288-8.105,2.014a23.424,23.424,0,0,1-12.839-6.85c-7.6-7.6-8.645-17.136-4.836-20.946ZM372.957,84.868a32.819,32.819,0,0,1,32.782-32.782h0a32.819,32.819,0,0,1,32.782,32.782V106.26a32.783,32.783,0,0,1-65.565,0Zm-149.739,0a32.782,32.782,0,0,1,65.564,0V106.26a32.782,32.782,0,0,1-65.564,0ZM256,159.042a52.858,52.858,0,0,0,48.744-32.551h26.929a107.356,107.356,0,0,0-15.771,19.44,105.617,105.617,0,0,0-16.424,56.591v64.9c-.231-.016-.461-.035-.7-.035H213.218c-.235,0-.465.019-.7.035v-64.9A105.624,105.624,0,0,0,196.1,145.931a107.323,107.323,0,0,0-15.771-19.44h26.928A52.858,52.858,0,0,0,256,159.042ZM449.217,363.653H415.738v-38.7a10,10,0,0,0-20,0v38.7H362.26v-76.3c.231.016.461.035.7.035H448.52c.235,0,.465-.019.7-.035v76.3Zm-86.957,20h33.479v76.261H362.26Zm-20-94.87H330.87a11.4,11.4,0,0,1-11.391-11.372v-.019c0-.007,0-.013,0-.019v-64.85l22.782,0ZM62.783,287.357c.231.016.461.035.7.035h85.564c.235,0,.465-.019.7-.035v76.3H62.783Zm86.956,96.3v76.261H116.26V383.653Zm10-191.133a10,10,0,0,0-10,10v64.907c-.231-.016-.461-.035-.7-.035H63.479c-.235,0-.465.019-.7.035V202.52a10,10,0,0,0-10-10l-32.21,0a84.208,84.208,0,0,1,5.7-22.211,32.192,32.192,0,0,0,3.506.2,34.205,34.205,0,0,0,4.68-.325,43.151,43.151,0,0,0,24.251-12.52A44.839,44.839,0,0,0,68.5,143.09a52.71,52.71,0,0,0,84.737-12.817,85.806,85.806,0,0,1,38.708,62.248Zm10,20,22.782,0v64.869a11.4,11.4,0,0,1-11.391,11.392H169.739ZM73.479,84.868a32.782,32.782,0,0,1,65.564,0V106.26a32.782,32.782,0,0,1-65.564,0ZM21.611,140.25a23.424,23.424,0,0,1,6.85-12.839c4.8-4.8,10.37-6.984,14.785-6.984a8.573,8.573,0,0,1,6.16,2.147c3.81,3.811,2.761,13.35-4.836,20.946a23.435,23.435,0,0,1-12.838,6.85c-2,.273-5.711.381-8.106-2.015s-2.291-6.1-2.015-8.1Zm9.781,148.533A11.4,11.4,0,0,1,20,277.391V212.522l22.783,0v76.263Zm31.391,94.87H96.261v76.261H62.783Zm106.956,76.26V308.783H181.13a31.223,31.223,0,0,0,11.391-2.148V459.913Zm96.261,0V369.952a10,10,0,0,0-20,0v89.961H212.521V287.357c.231.016.461.035.7.035h85.564c.235,0,.466-.019.7-.035V459.914H266Zm53.479-153.278a31.223,31.223,0,0,0,11.391,2.148h11.391v151.13H319.479Zm96.26,153.278V383.652h33.479v76.261ZM459.218,192.52h0a10,10,0,0,0-10,10v64.907c-.231-.016-.461-.035-.7-.035H362.957c-.235,0-.465.019-.7.035V202.52a10,10,0,0,0-10-10l-32.208,0a85.811,85.811,0,0,1,38.708-62.249A52.711,52.711,0,0,0,443.5,143.091a44.835,44.835,0,0,0,9.79,14.573,43.16,43.16,0,0,0,24.251,12.52,34.209,34.209,0,0,0,4.681.325,32.188,32.188,0,0,0,3.505-.2,84.246,84.246,0,0,1,5.7,22.211ZM492,277.392a11.4,11.4,0,0,1-11.391,11.392H469.217V212.521l22.783,0Z" fill="#d96501"/>
      <path id="Path_85" data-name="Path 85" d="M256,314.952a10,10,0,1,0,10,10v-.008A10,10,0,0,0,256,314.952Z" fill="#d96501"/>
    </g>
  </g>
</svg>
