<svg xmlns="http://www.w3.org/2000/svg" width="53.5" height="40.707" viewBox="0 0 53.5 40.707">
  <g id="graduation-cap" transform="translate(0 -41.75)">
    <g id="Group_2" data-name="Group 2" transform="translate(0 41.75)">
      <path id="Path_17" data-name="Path 17" d="M51.723,52.858,30.4,42.439a8.734,8.734,0,0,0-6.8,0L1.777,52.858A2.628,2.628,0,0,0,0,55.186c0,.552.245,1.532,1.777,2.329l1.777.858v9.805a3,3,0,0,0-1.9,2.758,3.042,3.042,0,0,0,1.838,2.758L.735,82.457H8.457L5.7,73.694a2.969,2.969,0,0,0-.061-5.515V59.415l3.248,1.593V73.755a.988.988,0,0,0,.184.552,22.257,22.257,0,0,0,17.649,8.151,22.13,22.13,0,0,0,17.588-8.151.988.988,0,0,0,.184-.552V61.069l7.231-3.554A2.628,2.628,0,0,0,53.5,55.186,2.74,2.74,0,0,0,51.723,52.858ZM42.53,73.449a20.493,20.493,0,0,1-15.811,7.109,20.493,20.493,0,0,1-15.811-7.109V61.866l12.686,6.067a8.265,8.265,0,0,0,3.371.674,7.462,7.462,0,0,0,3.432-.735L42.53,61.927ZM50.865,55.8l-7.354,3.616a.7.7,0,0,0-.674.368l-13.3,6.435a6.8,6.8,0,0,1-5.148,0L8.028,58.373l18.814-2.206a.954.954,0,0,0-.184-1.9L4.841,56.841,2.635,55.8a1.236,1.236,0,0,1-.674-.552c0-.061.123-.306.674-.552L24.452,44.217a6.331,6.331,0,0,1,2.513-.49,6.212,6.212,0,0,1,2.574.49L50.865,54.635c.552.245.674.49.674.613A1.685,1.685,0,0,1,50.865,55.8Z" transform="translate(0 -41.75)"/>
    </g>
  </g>
</svg>
