<svg xmlns="http://www.w3.org/2000/svg" width="183.855" height="183.855" viewBox="0 0 183.855 183.855">
  <g id="Calendar" transform="translate(-2 -2)">
    <path id="Path_86" data-name="Path 86" d="M170.533,20.385H155.212V14.257a12.257,12.257,0,0,0-24.514,0v6.128H106.184V14.257a12.257,12.257,0,0,0-24.514,0v6.128H57.156V14.257a12.257,12.257,0,1,0-24.514,0v6.128H17.321A15.321,15.321,0,0,0,2,35.707v122.57A15.321,15.321,0,0,0,17.321,173.6h85.8a3.064,3.064,0,1,0,0-6.128h-85.8a9.22,9.22,0,0,1-9.193-9.193V63.285h171.6v52.092a3.064,3.064,0,0,0,6.128,0V35.707a15.321,15.321,0,0,0-15.321-15.321Zm-33.707-6.128a6.128,6.128,0,1,1,12.257,0V32.642a6.128,6.128,0,0,1-12.257,0Zm-49.028,0a6.128,6.128,0,1,1,12.257,0V32.642a6.128,6.128,0,0,1-12.257,0Zm-49.028,0a6.128,6.128,0,1,1,12.257,0V32.642a6.128,6.128,0,0,1-12.257,0Zm140.955,42.9H8.128V35.707a9.22,9.22,0,0,1,9.193-9.193H32.642v6.128a12.257,12.257,0,1,0,24.514,0V26.514H81.67v6.128a12.257,12.257,0,0,0,24.514,0V26.514H130.7v6.128a12.257,12.257,0,0,0,24.514,0V26.514h15.321a9.22,9.22,0,0,1,9.193,9.193Z" transform="translate(0)" fill="#d96501"/>
    <path id="Path_87" data-name="Path 87" d="M46.514,33.128A6.128,6.128,0,0,0,40.385,27H28.128A6.128,6.128,0,0,0,22,33.128v9.193a6.128,6.128,0,0,0,6.128,6.128H40.385a6.128,6.128,0,0,0,6.128-6.128ZM28.128,42.321V33.128H40.385v9.193Z" transform="translate(41.285 51.606)" fill="#d96501"/>
    <path id="Path_88" data-name="Path 88" d="M34.514,33.128A6.128,6.128,0,0,0,28.385,27H16.128A6.128,6.128,0,0,0,10,33.128v9.193a6.128,6.128,0,0,0,6.128,6.128H28.385a6.128,6.128,0,0,0,6.128-6.128ZM16.128,42.321V33.128H28.385v9.193Z" transform="translate(16.514 51.606)" fill="#d96501"/>
    <path id="Path_89" data-name="Path 89" d="M64.385,48.45a6.128,6.128,0,0,0,6.128-6.128V33.128A6.128,6.128,0,0,0,64.385,27H52.128A6.128,6.128,0,0,0,46,33.128v9.193a6.128,6.128,0,0,0,6.128,6.128ZM52.128,33.128H64.385v9.193H52.128Z" transform="translate(90.827 51.606)" fill="#d96501"/>
    <path id="Path_90" data-name="Path 90" d="M46.514,42.128A6.128,6.128,0,0,0,40.385,36H28.128A6.128,6.128,0,0,0,22,42.128v9.193a6.128,6.128,0,0,0,6.128,6.128H40.385a6.128,6.128,0,0,0,6.128-6.128ZM28.128,51.321V42.128H40.385v9.193Z" transform="translate(41.285 70.184)" fill="#d96501"/>
    <path id="Path_91" data-name="Path 91" d="M34.514,42.128A6.128,6.128,0,0,0,28.385,36H16.128A6.128,6.128,0,0,0,10,42.128v9.193a6.128,6.128,0,0,0,6.128,6.128H28.385a6.128,6.128,0,0,0,6.128-6.128ZM16.128,51.321V42.128H28.385v9.193Z" transform="translate(16.514 70.184)" fill="#d96501"/>
    <path id="Path_92" data-name="Path 92" d="M40.385,45H28.128A6.128,6.128,0,0,0,22,51.128v9.193a6.128,6.128,0,0,0,6.128,6.128H40.385a6.128,6.128,0,0,0,6.128-6.128V51.128A6.128,6.128,0,0,0,40.385,45ZM28.128,60.321V51.128H40.385v9.193Z" transform="translate(41.285 88.762)" fill="#d96501"/>
    <path id="Path_93" data-name="Path 93" d="M40.128,48.45H52.385a6.128,6.128,0,0,0,6.128-6.128V33.128A6.128,6.128,0,0,0,52.385,27H40.128A6.128,6.128,0,0,0,34,33.128v9.193A6.128,6.128,0,0,0,40.128,48.45Zm0-15.321H52.385v9.193H40.128Z" transform="translate(66.056 51.606)" fill="#d96501"/>
    <path id="Path_94" data-name="Path 94" d="M34,51.321a6.128,6.128,0,0,0,6.128,6.128,3.064,3.064,0,0,0,0-6.128V42.128H52.385a3.064,3.064,0,1,0,0-6.128H40.128A6.128,6.128,0,0,0,34,42.128Z" transform="translate(66.056 70.184)" fill="#d96501"/>
    <path id="Path_95" data-name="Path 95" d="M28.385,45H16.128A6.128,6.128,0,0,0,10,51.128v9.193a6.128,6.128,0,0,0,6.128,6.128H28.385a6.128,6.128,0,0,0,6.128-6.128V51.128A6.128,6.128,0,0,0,28.385,45ZM16.128,60.321V51.128H28.385v9.193Z" transform="translate(16.514 88.762)" fill="#d96501"/>
    <path id="Path_96" data-name="Path 96" d="M75.835,36A39.835,39.835,0,1,0,115.67,75.835,39.835,39.835,0,0,0,75.835,36Zm0,73.542a33.707,33.707,0,1,1,33.707-33.707,33.707,33.707,0,0,1-33.707,33.707Z" transform="translate(70.184 70.184)" fill="#d96501"/>
    <path id="Path_97" data-name="Path 97" d="M81.654,45.413,57.821,69.247,46.989,58.411a3.064,3.064,0,1,0-4.333,4.333l13,13a3.064,3.064,0,0,0,4.333,0l26-26a3.064,3.064,0,1,0-4.333-4.333Z" transform="translate(82.07 87.761)" fill="#d96501"/>
  </g>
</svg>
