<svg xmlns="http://www.w3.org/2000/svg" width="512.001" height="390.704" viewBox="0 0 512.001 390.704">
  <g id="sport" transform="translate(-0.001 0.001)">
    <path id="Path_98" data-name="Path 98" d="M425.391,250.23a9.989,9.989,0,0,0-13.645-3.656L400.973,252.8,383.6,222.7l10.773-6.219a9.99,9.99,0,0,0-9.988-17.3L373.609,205.4l-17.375-30.094,10.773-6.219a9.99,9.99,0,1,0-9.988-17.3l-10.773,6.223-17.375-30.094,10.773-6.219a9.99,9.99,0,1,0-9.988-17.3l-10.773,6.223L305.3,87.09A9.99,9.99,0,1,0,288,97.082l13.578,23.52L290.8,126.824a9.989,9.989,0,1,0,9.988,17.3l10.777-6.219L328.941,168l-10.773,6.223a9.989,9.989,0,1,0,9.988,17.3l10.777-6.219,17.371,30.09-10.773,6.223a9.989,9.989,0,1,0,9.988,17.3L366.3,232.7l17.371,30.09-10.773,6.223a9.989,9.989,0,1,0,9.988,17.3l10.777-6.219,13.578,23.52a9.99,9.99,0,0,0,17.3-9.988L410.961,270.1l10.773-6.219A9.99,9.99,0,0,0,425.391,250.23Zm0,0" fill="#d96501"/>
    <path id="Path_99" data-name="Path 99" d="M497.152,167.781a9.99,9.99,0,1,0-18.812,6.73c22.3,62.34,17.16,129.613-14.1,184.566a23.055,23.055,0,0,1-20.02,11.645h-.152c-77.457-.5-150.922-44.711-191.719-115.375-34.066-59-40.766-128.508-19.754-189.035.031-.09.07-.172.1-.262.012-.039.02-.074.027-.113A208.421,208.421,0,0,1,248.3,31.625a23.055,23.055,0,0,1,20.02-11.645h.148c63.23.406,124.066,29.6,166.906,80.1a9.99,9.99,0,1,0,15.234-12.926C403.992,32.211,337.652.445,268.594,0A43.037,43.037,0,0,0,230.93,21.75a226.973,226.973,0,0,0-13.871,29,173.448,173.448,0,0,0-94.414,1.734,9.5,9.5,0,0,0-1.5.457,173.546,173.546,0,0,0-88.723,64.293,10.14,10.14,0,0,0-1.687,2.4A171.814,171.814,0,0,0,.066,214.266a10.053,10.053,0,0,0-.027,2.027c0,.527-.02,1.051-.02,1.578A171.913,171.913,0,0,0,33.727,320.293a10.07,10.07,0,0,0,1.828,2.43,173.576,173.576,0,0,0,80.66,58.438,10.006,10.006,0,0,0,1.52.531,173.012,173.012,0,0,0,110.254-.012,10.269,10.269,0,0,0,1.539-.539,172.826,172.826,0,0,0,67.785-43.359C339.2,371.152,390.68,390.359,443.941,390.7h.277a43.063,43.063,0,0,0,37.391-21.75C515.746,308.934,521.414,235.609,497.152,167.781Zm-324.3,100.844-48.129-34.969,18.383-56.578H203.73a255.357,255.357,0,0,0,16.137,57.387Zm-67.809-39.066-40.4,13.23-44.457-32.3a151.911,151.911,0,0,1,24.879-76.383H99.453l25.316,34.742Zm-83.98,6.266L50.891,257.5,39.512,292.52A151.666,151.666,0,0,1,21.063,235.824ZM210.523,69.7a241.928,241.928,0,0,0-9.129,87.395H140.93l-25.18-34.555L132.7,70.383a153.4,153.4,0,0,1,77.824-.68Zm-101.66,9.375L97.477,114.125H60.711A153.539,153.539,0,0,1,108.863,79.078ZM53.707,313.5l16.762-51.6,40.766-13.344,51.625,37.508v42.6l-44.207,32.117A153.553,153.553,0,0,1,53.707,313.5Zm89.3,54.285,29.844-21.68,29.828,21.672a152.989,152.989,0,0,1-59.672.008Zm84.039-7L182.84,328.668v-42.6l45.527-33.078q3.164,6.24,6.68,12.348a257.355,257.355,0,0,0,47.113,59.355A152.9,152.9,0,0,1,227.047,360.785Zm0,0" fill="#d96501"/>
    <path id="Path_100" data-name="Path 100" d="M468.836,140.355a10,10,0,1,0-7.062-2.937A10.054,10.054,0,0,0,468.836,140.355Zm0,0" fill="#d96501"/>
  </g>
</svg>
